#!OML:ASF F:\VICON\USERDATA\INSTALL\rory3\rory3.ASF
:FULLY-SPECIFIED
:DEGREES
719
root 0.240617 17.8803 19.2703 -4.28407 -2.24294 1.33703
lowerback 9.69938 0.107931 -1.97664
upperback 0.898144 -0.0476975 0.465324
thorax -4.50349 0.0172851 1.60391
lowerneck -15.3345 -2.38154 -2.06983
upperneck 21.0048 -2.98011 0.770052
head 9.17719 -1.477 0.240354
rclavicle 1.33558e-015 5.96354e-016
rhumerus -28.1433 -20.8284 -79.4788
rradius 25.245
rwrist 6.16533
rhand -16.8311 16.961
rfingers 7.12502
rthumb 9.39829 -12.8094
lclavicle 1.33558e-015 5.96354e-016
lhumerus -31.243 2.1467 79.3839
lradius 24.0524
lwrist 10.3425
lhand -30.144 16.5802
lfingers 7.12502
lthumb -3.45654 46.5319
rfemur -25.6056 -2.64589 20.9107
rtibia 70.9021
rfoot -7.40326 -4.43426
rtoes 2.50188
lfemur -4.38612 -3.1725 -27.4081
ltibia 28.6311
lfoot -15.1234 -2.19892
ltoes 0.035315
720
root 0.233468 17.8681 19.4467 -4.27171 -2.1041 1.6274
lowerback 9.75358 0.0343269 -2.38773
upperback 0.855996 -0.192913 0.436895
thorax -4.57049 -0.0456999 1.82598
lowerneck -15.131 -2.43313 -2.10372
upperneck 20.8072 -3.03853 0.738277
head 9.07227 -1.51183 0.231382
rclavicle 8.65956e-015 7.95139e-015
rhumerus -28.5827 -20.6842 -79.4311
rradius 25.2719
rwrist 6.22236
rhand -17.0357 18.5704
rfingers 7.12502
rthumb 9.20093 -11.2088
lclavicle 8.65956e-015 7.95139e-015
lhumerus -30.7221 2.26725 79.0342
lradius 24.5721
lwrist 8.17647
lhand -27.5396 21.2256
lfingers 7.12502
lthumb -0.941211 51.2033
rfemur -26.4894 -2.52736 20.715
rtibia 69.5151
rfoot -8.23581 -4.46835
rtoes 0.725052
lfemur -3.65762 -3.02678 -27.7774
ltibia 28.3902
lfoot -15.4005 -2.22549
ltoes 1.89339
721
root 0.225102 17.864 19.6095 -4.13162 -2.03437 1.78108
lowerback 10.13 0.000427751 -2.64174
upperback 0.56818 -0.279488 0.435959
thorax -5.07715 -0.0728724 1.98404
lowerneck -14.9221 -2.44868 -1.9392
upperneck 20.8313 -3.04634 0.477766
head 9.03493 -1.53218 0.116838
rclavicle -3.21161e-015 -9.34288e-015
rhumerus -29.2029 -20.8794 -79.1228
rradius 25.063
rwrist 6.55938
rhand -16.9409 20.2374
rfingers 7.12502
rthumb 9.2924 -9.53781
lclavicle -3.21161e-015 -9.34288e-015
lhumerus -30.5452 1.51633 79.0337
lradius 24.7643
lwrist 8.08733
lhand -27.1512 20.9979
lfingers 7.12502
lthumb -0.566097 50.9769
rfemur -27.4842 -2.26704 20.6692
rtibia 67.8623
rfoot -9.019 -4.55306
rtoes -1.24396
lfemur -3.02156 -2.92346 -27.99
ltibia 28.1015
lfoot -15.7725 -2.06294
ltoes 2.74197
722
root 0.21574 17.8668 19.7782 -4.03911 -2.01739 1.77408
lowerback 10.1437 -0.0139076 -2.7942
upperback 0.618749 -0.311244 0.522356
thorax -5.02894 -0.0854497 2.16482
lowerneck -15.1549 -2.43292 -1.92962
upperneck 20.8393 -2.99678 0.371455
head 9.0781 -1.51877 0.0820635
rclavicle 6.17475e-015 1.78906e-015
rhumerus -29.3308 -20.5639 -79.1658
rradius 25.1019
rwrist 6.20581
rhand -17.0523 20.515
rfingers 7.12502
rthumb 9.18491 -9.26492
lclavicle 6.17475e-015 1.78906e-015
lhumerus -29.8353 0.944815 79.1334
lradius 24.986
lwrist 8.23268
lhand -27.3577 21.3152
lfingers 7.12502
lthumb -0.76554 51.2936
rfemur -28.1887 -1.93001 20.7949
rtibia 65.9552
rfoot -9.6807 -4.78485
rtoes -2.32955
lfemur -2.2016 -2.76408 -28.0172
ltibia 27.6559
lfoot -15.9436 -2.0127
ltoes 4.3962
723
root 0.21496 17.8764 19.9552 -3.92766 -1.79211 1.69438
lowerback 9.89863 -0.147617 -2.73623
upperback 0.731885 -0.471504 0.571579
thorax -4.76387 -0.170882 2.20293
lowerneck -15.151 -2.45718 -2.1076
upperneck 20.6765 -3.03103 0.573129
head 9.02816 -1.52679 0.177138
rclavicle -6.49777e-015 -9.93923e-016
rhumerus -29.4994 -20.3491 -79.2802
rradius 25.2095
rwrist 5.64314
rhand -17.4768 22.1108
rfingers 7.12502
rthumb 8.77524 -7.68681
lclavicle -6.49777e-015 -9.93923e-016
lhumerus -29.1289 0.643668 79.0231
lradius 25.4517
lwrist 7.54558
lhand -27.2873 23.3927
lfingers 7.12502
lthumb -0.697582 53.3713
rfemur -28.6787 -1.94739 20.9266
rtibia 63.853
rfoot -9.74064 -5.56228
rtoes -3.95013
lfemur -1.3401 -2.65972 -28.0188
ltibia 27.0718
lfoot -15.9333 -1.90704
ltoes 4.2904
724
root 0.218716 17.8773 20.1233 -3.78474 -1.23439 2.1723
lowerback 9.89731 -0.369156 -3.16629
upperback 0.66981 -0.820344 0.455216
thorax -4.80373 -0.333806 2.37231
lowerneck -14.994 -2.47394 -2.14145
upperneck 20.4869 -3.06408 0.643514
head 8.93629 -1.53814 0.205725
rclavicle 9.4547e-015 2.98177e-015
rhumerus -29.8302 -20.3745 -79.2418
rradius 25.0988
rwrist 5.18581
rhand -17.7303 24.7804
rfingers 7.12502
rthumb 8.53065 -5.02731
lclavicle 9.4547e-015 2.98177e-015
lhumerus -28.6294 0.380846 78.8724
lradius 25.7879
lwrist 6.8005
lhand -26.8066 25.6072
lfingers 7.12502
lthumb -0.233294 55.5868
rfemur -29.2108 -2.31687 20.3589
rtibia 61.6513
rfoot -9.86289 -6.25916
rtoes -5.74791
lfemur -0.492146 -2.62067 -28.6444
ltibia 26.358
lfoot -16.0335 -1.85384
ltoes 2.62263
725
root 0.210849 17.8728 20.2862 -3.64092 -0.968072 2.79519
lowerback 10.0381 -0.484369 -3.90176
upperback 0.604385 -1.06746 0.3609
thorax -4.92436 -0.437416 2.72571
lowerneck -15.271 -2.38438 -2.18657
upperneck 20.5711 -2.92549 0.655766
head 9.01507 -1.47418 0.230412
rclavicle -8.0632e-015 1.59028e-015
rhumerus -29.9392 -20.2487 -79.2449
rradius 24.8826
rwrist 4.99388
rhand -17.766 25.5491
rfingers 7.12502
rthumb 8.49618 -4.26002
lclavicle -8.0632e-015 1.59028e-015
lhumerus -27.9739 0.394088 78.6766
lradius 25.8945
lwrist 6.00996
lhand -25.7425 27.7991
lfingers 7.12502
lthumb 0.794486 57.7774
rfemur -29.8154 -2.19844 19.6917
rtibia 59.2985
rfoot -10.3656 -6.18399
rtoes -5.67461
lfemur 0.311496 -2.33213 -29.3416
ltibia 25.5777
lfoot -16.1165 -2.01319
ltoes 2.41656
726
root 0.198091 17.8734 20.4594 -3.58094 -1.06004 2.69136
lowerback 10.2195 -0.489319 -3.96676
upperback 0.542692 -1.08486 0.46937
thorax -5.08626 -0.438662 2.88283
lowerneck -15.4594 -2.29318 -2.16454
upperneck 20.7362 -2.79561 0.630218
head 9.104 -1.41372 0.231021
rclavicle -6.42323e-015 -5.56597e-015
rhumerus -30.319 -20.1095 -79.133
rradius 24.8897
rwrist 4.98072
rhand -17.8133 25.1281
rfingers 7.12502
rthumb 8.45055 -4.68287
lclavicle -6.42323e-015 -5.56597e-015
lhumerus -27.375 -0.0308992 78.6761
lradius 25.9429
lwrist 6.2486
lhand -26.2445 25.8607
lfingers 7.12502
lthumb 0.309642 55.8402
rfemur -30.0797 -1.59554 19.8649
rtibia 56.6861
rfoot -10.9357 -6.06564
rtoes -6.33649
lfemur 1.20042 -2.04291 -29.2258
ltibia 24.8069
lfoot -16.0994 -2.02739
ltoes 3.33646
727
root 0.191234 17.8779 20.6343 -3.46626 -0.938063 2.37175
lowerback 10.107 -0.566211 -3.73164
upperback 0.60107 -1.14709 0.60511
thorax -4.95861 -0.477096 2.898
lowerneck -15.5903 -2.32375 -2.08555
upperneck 20.704 -2.84565 0.590633
head 9.11575 -1.43462 0.196843
rclavicle 8.22472e-015 3.57812e-015
rhumerus -30.6588 -19.9293 -79.1182
rradius 25.0843
rwrist 4.66053
rhand -17.9853 24.227
rfingers 7.12502
rthumb 8.28453 -5.59052
lclavicle 8.22472e-015 3.57812e-015
lhumerus -26.7705 -0.696803 78.7183
lradius 26.3737
lwrist 6.47395
lhand -26.5507 23.9118
lfingers 7.12502
lthumb 0.0138509 53.8915
rfemur -30.2123 -1.2277 20.1904
rtibia 53.9011
rfoot -11.2966 -6.32272
rtoes -7.22976
lfemur 1.97996 -2.09322 -28.9185
ltibia 24.0808
lfoot -15.9779 -2.10388
ltoes 4.04823
728
root 0.182681 17.8858 20.8097 -3.24684 -0.671594 2.20819
lowerback 9.79763 -0.678624 -3.60593
upperback 0.682285 -1.26544 0.676139
thorax -4.69207 -0.544795 2.90946
lowerneck -15.4856 -2.38691 -2.20171
upperneck 20.3446 -2.93249 0.722324
head 8.97791 -1.4702 0.253366
rclavicle -2.75317e-014 -5.56597e-015
rhumerus -30.7913 -20.2255 -78.9733
rradius 25.0661
rwrist 4.95321
rhand -18.0452 23.0136
rfingers 7.12502
rthumb 8.22674 -6.80622
lclavicle -2.75317e-014 -5.56597e-015
lhumerus -26.089 -1.06415 78.6708
lradius 26.6726
lwrist 6.68522
lhand -26.2755 24.0142
lfingers 7.12502
lthumb 0.279659 53.9937
rfemur -30.4025 -0.996425 20.3427
rtibia 50.9371
rfoot -10.6802 -7.12533
rtoes -6.45786
lfemur 2.7853 -2.2442 -28.7593
ltibia 23.3323
lfoot -16.1173 -2.18609
ltoes 4.66469
729
root 0.17237 17.8851 20.9862 -3.02543 -0.446697 2.38145
lowerback 9.71725 -0.729864 -3.82526
upperback 0.583138 -1.35833 0.632669
thorax -4.74006 -0.583923 2.9997
lowerneck -15.323 -2.46549 -2.30754
upperneck 20.2066 -3.05027 0.866049
head 8.90678 -1.51879 0.307914
rclavicle 1.01877e-014 3.57812e-015
rhumerus -31.1994 -20.773 -78.6272
rradius 25.0816
rwrist 5.70088
rhand -17.4203 21.2894
rfingers 7.12502
rthumb 8.82982 -8.50591
lclavicle 1.01877e-014 3.57812e-015
lhumerus -25.7577 -1.44438 78.5908
lradius 27.0117
lwrist 7.05837
lhand -25.7123 25.5592
lfingers 7.12502
lthumb 0.823601 55.5373
rfemur -30.5148 -0.608533 20.081
rtibia 47.8533
rfoot -9.78895 -7.95885
rtoes -5.66306
lfemur 3.77867 -2.28647 -28.9369
ltibia 22.4276
lfoot -16.2347 -2.18627
ltoes 4.78433
730
root 0.159613 17.8856 21.1657 -2.81247 -0.26971 2.52763
lowerback 9.65109 -0.809914 -4.11279
upperback 0.48656 -1.49545 0.62982
thorax -4.78642 -0.642846 3.17698
lowerneck -15.4333 -2.47862 -2.15266
upperneck 20.2989 -3.07438 0.726256
head 8.95396 -1.53284 0.22999
rclavicle -1.21631e-014 -1.11319e-014
rhumerus -31.6516 -21.3041 -78.2676
rradius 25.1611
rwrist 6.29614
rhand -16.565 19.7396
rfingers 7.12502
rthumb 9.65508 -10.0191
lclavicle -1.21631e-014 -1.11319e-014
lhumerus -25.5715 -1.72375 78.4878
lradius 27.6046
lwrist 7.38423
lhand -25.0321 27.0565
lfingers 7.12502
lthumb 1.48059 57.0311
rfemur -30.5699 -0.0470702 19.8115
rtibia 44.6819
rfoot -9.0102 -8.69302
rtoes -6.74958
lfemur 4.67615 -2.16541 -29.029
ltibia 21.4406
lfoot -16.0612 -2.30789
ltoes 3.76764
731
root 0.152074 17.888 21.3517 -2.58721 -0.0422776 2.64696
lowerback 9.24244 -0.932208 -4.30162
upperback 0.612097 -1.65685 0.638819
thorax -4.40688 -0.730675 3.29997
lowerneck -15.6897 -2.45115 -2.08463
upperneck 20.2268 -3.03813 0.690314
head 8.97378 -1.51319 0.208237
rclavicle 1.5294e-014 -6.75868e-015
rhumerus -31.6696 -21.6077 -78.1536
rradius 25.1375
rwrist 6.48232
rhand -16.3044 19.494
rfingers 7.12502
rthumb 9.90649 -10.2529
lclavicle 1.5294e-014 -6.75868e-015
lhumerus -25.0204 -1.7574 78.3614
lradius 28.1232
lwrist 7.61694
lhand -25.4682 26.3062
lfingers 7.12502
lthumb 1.05942 56.2833
rfemur -30.6399 0.393298 19.5491
rtibia 41.3965
rfoot -8.21597 -9.59367
rtoes -9.2906
lfemur 5.54549 -2.04725 -29.0885
ltibia 20.4243
lfoot -15.9009 -2.62946
ltoes 3.18957
732
root 0.149237 17.8798 21.5266 -2.35471 0.198455 2.75977
lowerback 9.19091 -1.05479 -4.4207
upperback 0.534604 -1.82968 0.677047
thorax -4.43911 -0.811307 3.42832
lowerneck -15.5988 -2.45964 -2.25259
upperneck 20.056 -3.04513 0.856242
head 8.90431 -1.51186 0.293551
rclavicle 1.82633e-015 5.56597e-015
rhumerus -31.9665 -21.1895 -78.1788
rradius 25.2636
rwrist 5.79238
rhand -16.1128 20.7165
rfingers 7.12502
rthumb 10.0913 -9.02156
lclavicle 1.82633e-015 5.56597e-015
lhumerus -24.5529 -1.93597 78.2948
lradius 28.3825
lwrist 7.73998
lhand -27.171 24.6138
lfingers 7.12502
lthumb -0.585262 54.5928
rfemur -30.5184 0.864392 19.2193
rtibia 38.0645
rfoot -7.84097 -10.3756
rtoes -10.543
lfemur 6.45025 -2.05649 -29.1638
ltibia 19.3689
lfoot -15.9044 -2.89554
ltoes 2.33977
733
root 0.138785 17.8745 21.7005 -2.01866 0.477339 2.65327
lowerback 9.21976 -1.18282 -4.44207
upperback 0.262912 -2.00337 0.801713
thorax -4.7191 -0.882956 3.59907
lowerneck -15.4905 -2.45111 -2.37106
upperneck 20.2129 -3.0275 0.939035
head 8.94155 -1.50443 0.343934
rclavicle 4.67144e-015 -5.96354e-015
rhumerus -32.5906 -20.9269 -77.9846
rradius 25.3066
rwrist 5.22685
rhand -15.8112 21.9036
rfingers 7.12502
rthumb 10.3823 -7.82008
lclavicle 4.67144e-015 -5.96354e-015
lhumerus -24.3685 -2.05089 78.2529
lradius 28.6543
lwrist 7.74263
lhand -28.6193 23.7074
lfingers 7.12502
lthumb -1.98406 53.6779
rfemur -30.4393 1.69143 18.9923
rtibia 34.7099
rfoot -7.63006 -11.311
rtoes -10.3221
lfemur 7.11799 -1.92719 -28.9194
ltibia 18.2909
lfoot -15.7134 -3.40867
ltoes 1.76927
